<?xml version="1.0" encoding="UTF-8"?>
<svg version="1.1" xmlns="http://www.w3.org/2000/svg" width="512" height="512">
<path d="M0 0 C168.96 0 337.92 0 512 0 C512 168.96 512 337.92 512 512 C343.04 512 174.08 512 0 512 C0 343.04 0 174.08 0 0 Z " fill="#FEFEFE" transform="translate(0,0)"/>
<path d="M0 0 C0.66 0.33 1.32 0.66 2 1 C-7.10063313 18.80234327 -16.22358172 36.57389681 -25.94116211 54.05004883 C-27.038992 55.98583116 -27.038992 55.98583116 -27.84472656 58.0769043 C-29.39308347 60.65433612 -31.04886951 61.43207591 -33.70703125 62.8125 C-34.67495605 63.32409668 -35.64288086 63.83569336 -36.64013672 64.36279297 C-37.6870166 64.90307129 -38.73389648 65.44334961 -39.8125 66 C-42.02058259 67.16728425 -44.22759646 68.33659212 -46.43359375 69.5078125 C-47.54331543 70.0946582 -48.65303711 70.68150391 -49.79638672 71.28613281 C-54.37076791 73.73333263 -58.87886433 76.28748533 -63.375 78.875 C-64.6429541 79.60348145 -64.6429541 79.60348145 -65.93652344 80.34667969 C-68.62603543 81.89488215 -71.3132244 83.44705408 -74 85 C-76.03509217 86.17459019 -78.07025102 87.34906488 -80.10546875 88.5234375 C-83.35142012 90.39650214 -86.5971128 92.27000441 -89.84179688 94.14526367 C-95.61026497 97.47703668 -101.38586954 100.79551878 -107.17578125 104.08984375 C-108.97934293 105.11640854 -110.78290367 106.14297497 -112.5864563 107.16955566 C-113.77310808 107.844935 -114.95985441 108.52014822 -116.146698 109.19519043 C-124.89564682 114.17494712 -133.56599232 119.26888968 -142.13818359 124.54760742 C-143.26474365 125.23560425 -143.26474365 125.23560425 -144.4140625 125.9375 C-145.0632666 126.33839844 -145.7124707 126.73929687 -146.38134766 127.15234375 C-148 128 -148 128 -150 128 C-150.03085693 128.71623535 -150.06171387 129.4324707 -150.09350586 130.17041016 C-150.80203635 142.67178605 -152.74678416 154.99633715 -154.5625 167.375 C-154.89564099 169.67180852 -155.22832697 171.96868307 -155.56054688 174.265625 C-156.36845368 179.84452228 -157.18197362 185.42257804 -158 191 C-157.36271469 190.71492584 -156.72542938 190.42985168 -156.0688324 190.13613892 C-140.06399792 182.98208595 -123.92936262 176.18936906 -107.72070312 169.51245117 C-99.15628576 165.98186604 -90.60662995 162.42421506 -82.09765625 158.76171875 C-80.93730362 158.26344826 -80.93730362 158.26344826 -79.75350952 157.75511169 C-76.10677399 156.18841851 -72.46378652 154.61387684 -68.82617188 153.02612305 C-67.54180321 152.47282747 -66.25730587 151.91983045 -64.97265625 151.3671875 C-63.86156494 150.88362793 -62.75047363 150.40006836 -61.60571289 149.90185547 C-60.74582764 149.60424316 -59.88594238 149.30663086 -59 149 C-58.34 149.33 -57.68 149.66 -57 150 C-63.18026881 155.72601307 -69.44110547 161.23504326 -75.99609375 166.53125 C-80.80545512 170.48380707 -85.48108896 174.58836554 -90.17578125 178.67578125 C-93.7676799 181.80292071 -97.38027999 184.90514452 -101 188 C-105.82649336 192.1298019 -110.6383696 196.27592922 -115.4375 200.4375 C-116.0572168 200.9747168 -116.67693359 201.51193359 -117.31542969 202.06542969 C-120.51198926 204.83776985 -123.70516687 207.61391645 -126.89453125 210.39453125 C-133.29640092 215.96954653 -139.72062836 221.48778929 -146.33984375 226.8046875 C-147.21769531 227.52914062 -148.09554687 228.25359375 -149 229 C-149.63803055 229.41730881 -150.2760611 229.83461761 -150.9334259 230.26457214 C-155.67588324 233.69611193 -157.54334305 236.4139215 -158.48730469 242.23217773 C-158.75142855 244.71241931 -158.97746482 247.19691638 -159.171875 249.68359375 C-159.30431837 251.02566251 -159.44031406 252.36738491 -159.57965088 253.70875549 C-159.93777972 257.23304666 -160.25488976 260.75974258 -160.56109619 264.28887939 C-161.11337801 270.57061672 -161.73625294 276.84605223 -162.359375 283.12109375 C-162.42503284 283.78962372 -162.49069069 284.45815369 -162.55833817 285.14694214 C-163.90136825 298.66869539 -166.01069617 311.34537087 -172.125 323.625 C-172.51187988 324.417854 -172.89875977 325.21070801 -173.29736328 326.02758789 C-185.80282332 350.88563561 -207.47679079 371.90632827 -234 381 C-249.89544311 385.5317462 -270.69710614 386.76451558 -285.88671875 379.18359375 C-298.04253703 372.37543675 -306.57393248 363.8338224 -310.54199219 350.12792969 C-313.03792976 338.53166535 -311.76806851 324.73828461 -307 314 C-306.73687012 313.40525879 -306.47374023 312.81051758 -306.20263672 312.19775391 C-297.28446549 292.58989018 -281.81087545 279.43650641 -261.71484375 271.7421875 C-243.78630362 266.06382374 -223.14792707 267.11058248 -206.39501953 275.73608398 C-199.6248136 279.3751864 -199.6248136 279.3751864 -198 281 C-197.67 216.65 -197.34 152.3 -197 86 C-163.39004324 70.93346766 -163.39004324 70.93346766 -148.125 64.25 C-146.37978066 63.48491065 -144.63458272 62.71977251 -142.8894043 61.95458984 C-126.32398909 54.69411559 -109.7454754 47.46370091 -93.16113281 40.24658203 C-89.60535847 38.69907809 -86.05006602 37.15047356 -82.49511719 35.60107422 C-71.92232591 30.9930975 -61.34693802 26.39120661 -50.76557922 21.80293274 C-45.80969814 19.65392605 -40.85504619 17.50217174 -35.90283203 15.34472656 C-30.95923863 13.19139007 -26.01231646 11.04588439 -21.06289673 8.90597534 C-19.19677783 8.09762008 -17.33183283 7.28654911 -15.46810913 6.47268677 C-12.90369886 5.35340608 -10.33529176 4.2438666 -7.765625 3.13671875 C-7.00339127 2.80137115 -6.24115753 2.46602356 -5.45582581 2.12051392 C-3.66172395 1.35360081 -1.83326129 0.66791482 0 0 Z " fill="#1D82EC" transform="translate(436,59)"/>
</svg>
